<svg xmlns="http://www.w3.org/2000/svg" xmlns:xlink="http://www.w3.org/1999/xlink"><symbol id="sprite-arrow-88" viewBox="0 0 21 164"><path d="m20.834 154-1.393-1.43-7.607 7.58V0h-2v160.15l-7.573-7.58L.834 154l10 10z"/></symbol><use xlink:href="#sprite-arrow-88" width="21" height="164" y="0"/><view id="sprite-arrow-88-view" viewBox="0 0 21 164"/><symbol id="sprite-arrow-big" viewBox="0 0 32 16"><path d="M30 7.5v1H0v-1z"/><path d="m31.207 8-7.353 7.354-.707-.707L29.793 8l-6.646-6.646.707-.708z"/></symbol><use xlink:href="#sprite-arrow-big" width="32" height="16" y="164"/><view id="sprite-arrow-big-view" viewBox="0 164 32 16"/><symbol id="sprite-arrow" viewBox="0 0 16 18"><path d="M15.144 7.894a.543.543 0 0 1-.788 0L8.562 2.109V17.25a.562.562 0 1 1-1.125 0V2.11L1.644 7.893a.557.557 0 1 1-.788-.788l6.75-6.75a.544.544 0 0 1 .788 0l6.75 6.75a.543.543 0 0 1 0 .788"/></symbol><use xlink:href="#sprite-arrow" width="16" height="18" y="180"/><view id="sprite-arrow-view" viewBox="0 180 16 18"/><symbol id="sprite-quotes" viewBox="0 0 51 52"><path d="M15.278.5C5.617.5 0 5.443 0 15.328V51.5h19.77V20.496h-8.76v-5.392c0-4.044 1.572-4.718 4.493-4.718h4.494V.5zm31.004 0c-9.66 0-15.278 4.943-15.278 14.828V51.5h19.771V20.496h-8.762v-5.392c0-4.044 1.348-4.718 4.494-4.718H51V.5z"/></symbol><use xlink:href="#sprite-quotes" width="51" height="52" y="198"/><view id="sprite-quotes-view" viewBox="0 198 51 52"/></svg>